<?xml version="1.0" encoding="UTF-8"?>
<svg width="141px" height="149px" viewBox="0 0 141 149" version="1.1" xmlns="http://www.w3.org/2000/svg" xmlns:xlink="http://www.w3.org/1999/xlink">
    <!-- Generator: Sketch 43 (38999) - http://www.bohemiancoding.com/sketch -->
    <title>logo-symbol-raised</title>
    <desc>Created with Sketch.</desc>
    <defs>
        <filter x="-78.0%" y="-37.2%" width="256.1%" height="248.8%" filterUnits="objectBoundingBox" id="filter-1">
            <feOffset dx="0" dy="32" in="SourceAlpha" result="shadowOffsetOuter1"></feOffset>
            <feGaussianBlur stdDeviation="16" in="shadowOffsetOuter1" result="shadowBlurOuter1"></feGaussianBlur>
            <feColorMatrix values="0 0 0 0 0   0 0 0 0 0   0 0 0 0 0  0 0 0 0.24 0" type="matrix" in="shadowBlurOuter1" result="shadowMatrixOuter1"></feColorMatrix>
            <feMerge>
                <feMergeNode in="shadowMatrixOuter1"></feMergeNode>
                <feMergeNode in="SourceGraphic"></feMergeNode>
            </feMerge>
        </filter>
    </defs>
    <g id="Website" stroke="none" stroke-width="1" fill="none" fill-rule="evenodd">
        <g id="Homepage" transform="translate(-569.000000, -391.000000)" fill-rule="nonzero">
            <g id="globe">
                <g id="logo-symbol-raised" filter="url(#filter-1)" transform="translate(599.000000, 391.000000)">
                    <path d="M80.6375473,55.1410496 C81.222547,55.5608023 81.432344,56.3581486 81.1404524,57.0296302 C79.4687636,62.1925245 76.58694,67.1036896 73.0355897,71.1747382 C72.5351168,71.7625143 71.8248464,71.9714741 71.1559278,71.678197 L60.8375524,68.0684478 C58.2889719,70.1678212 55.4065398,71.8462201 52.3155273,73.0633191 L50.2686359,83.80886 C50.1433656,84.4803416 49.5583656,85.110276 48.8474874,85.1939821 C46.1748532,85.6980513 43.5003942,85.9913285 40.743841,85.9913285 C37.9860715,85.9913285 35.3128289,85.6974402 32.6395863,85.1939821 C31.9287081,85.110276 31.3443164,84.4803416 31.2190461,83.80886 L29.1721547,73.0633191 C26.081142,71.8462201 23.1147914,70.1678212 20.6501299,68.0684478 L10.3317541,71.678197 C9.6634435,71.9720845 8.95317339,71.7625143 8.45148435,71.1747382 C4.90074197,67.1036896 2.0183103,62.1925245 0.347229641,57.0296302 C0.0547297159,56.3581486 0.263918852,55.5608023 0.848310597,55.1410496 L9.03526799,48.0064797 C8.74276806,46.4105652 8.65945728,44.6900077 8.65945728,43.0109977 C8.65945728,41.3325989 8.74337615,39.6108195 9.03526799,38.0161269 L0.847702485,30.880335 C0.263310744,30.4605826 0.0541216077,29.6638472 0.346621533,28.9917545 C2.01770219,23.8294713 4.90013388,18.9183064 8.45087622,14.8472574 C8.9525653,14.2594817 9.6628354,14.049911 10.331146,14.3437988 L20.6495218,17.9529368 C23.1141833,15.8541745 26.0805339,14.1757756 29.1715467,12.9580658 L31.218438,2.21313598 C31.3437083,1.54165424 31.9287081,0.911720054 32.6389782,0.828013959 C37.9860715,-0.263220242 43.4997861,-0.263220242 48.8468793,0.828013959 C49.5577578,0.911720054 50.1427575,1.54165424 50.2680282,2.21313598 L52.314311,12.9574548 C55.4053236,14.1751646 58.2883634,15.8535635 60.8363361,17.9523258 L71.1547115,14.3431878 C71.8236301,14.048689 72.5339005,14.2588708 73.0343734,14.8466464 C76.5857237,18.9176954 79.4675473,23.8288603 81.1392361,28.9911435 C81.432344,29.6632362 81.222547,30.4599716 80.6375473,30.879724 L72.4499815,38.0155159 C72.7424813,39.6108195 72.8257926,41.3319881 72.8257926,43.010387 C72.8257926,44.6893969 72.7424813,46.4105652 72.4499815,48.005869 L80.6375473,55.1410496 Z" id="Combined-Shape" fill="#4A709D"></path>
                    <ellipse id="Oval" fill="#F2673A" cx="40.7432329" cy="43.0006111" rx="26.5451283" ry="26.6710836"></ellipse>
                    <path d="M80.6375473,55.1410496 L72.4499815,48.005869 C72.7424813,46.4105652 72.8257926,44.6893969 72.8257926,43.010387 C72.8257926,41.3319881 72.7424813,39.6108195 72.4499815,38.0155159 L80.6375473,30.879724 C81.222547,30.4599716 81.432344,29.6632362 81.1392361,28.9911435 C79.4675473,23.8288603 76.5857237,18.9176954 73.0343734,14.8466464 C72.5339005,14.2588708 71.8236301,14.048689 71.1547115,14.3431878 L60.8363361,17.9523258 C58.2883634,15.8535635 55.4053236,14.1751646 52.314311,12.9574548 L50.2680282,2.21313598 C50.1427575,1.54165424 49.5577578,0.911720054 48.8468793,0.828013959 C43.4997861,-0.263220242 37.9860715,-0.263220242 32.6389782,0.828013959 C31.9287081,0.911720054 31.3437083,1.54165424 31.218438,2.21313598 L29.1715467,12.9580658 C26.0805339,14.1757756 23.1141833,15.8541745 20.6495218,17.9529368 L10.331146,14.3437988 C9.6628354,14.049911 8.9525653,14.2594817 8.45087622,14.8472574 C4.90013388,18.9183064 2.01770219,23.8294713 0.346621533,28.9917545 C0.0541216077,29.6638472 0.263310744,30.4605826 0.847702485,30.880335 L9.03526799,38.0161269 C8.74337615,39.6108195 8.65945728,41.3325989 8.65945728,43.0109977 C8.65945728,44.6900077 8.74276806,46.4105652 9.03526799,48.0064797 L0.848310597,55.1410496 C0.263918852,55.5608023 0.0547297159,56.3581486 0.347229641,57.0296302 C2.0183103,62.1925245 4.90074197,67.1036896 8.45148435,71.1747382 C8.95317339,71.7625143 9.6634435,71.9720845 10.3317541,71.678197 L20.6501299,68.0684478 C23.1147914,70.1678212 26.081142,71.8462201 29.1721547,73.0633191 L31.2190461,83.80886 C31.3443164,84.4803416 31.9287081,85.110276 32.6395863,85.1939821 C35.3128289,85.6974402 37.9860715,85.9913285 40.743841,85.9913285 C43.5003942,85.9913285 46.1748532,85.6980513 48.8474874,85.1939821 C49.5583656,85.110276 50.1433656,84.4803416 50.2686359,83.80886 L52.3155273,73.0633191 C55.4065398,71.8462201 58.2889719,70.1678212 60.8375524,68.0684478 L71.1559278,71.678197 C71.8248464,71.9714741 72.5351168,71.7625143 73.0355897,71.1747382 C76.58694,67.1036896 79.4687636,62.1925245 81.1404524,57.0296302 C81.432344,56.3581486 81.222547,55.5608023 80.6375473,55.1410496 L80.6375473,55.1410496 L80.6375473,55.1410496 L80.6375473,55.1410496 Z M40.7432329,69.6710837 C26.0829663,69.6710837 14.1987126,57.7298288 14.1987126,43.0006111 C14.1987126,28.2707823 26.0829663,16.3301383 40.7432329,16.3301383 C55.402891,16.3301383 67.2883613,28.2707823 67.2883613,43.0006111 C67.2883613,57.7298288 55.402891,69.6710837 40.7432329,69.6710837 L40.7432329,69.6710837 L40.7432329,69.6710837 L40.7432329,69.6710837 Z" id="Shape" fill="#4A709D"></path>
                    <path d="M66.5002533,42.2087635 L44.7299888,42.2087635 C44.4271507,42.2087635 44.1504619,42.3816748 44.0166781,42.6547888 C43.8835025,42.9272919 43.9169481,43.2535622 44.1024211,43.4942938 L48.1244475,48.7182873 L48.1226227,48.720731 C48.2339068,48.8472066 48.303231,49.0121751 48.303231,49.193029 C48.303231,49.375105 48.2339068,49.5388513 48.1226227,49.6653273 L48.123839,49.667771 C48.117758,49.6744916 48.1110686,49.6806018 48.1049877,49.686712 C48.0970824,49.6958763 48.089177,49.7038199 48.0812717,49.7117627 C46.2964748,51.6040093 43.7953266,52.706852 41.1768137,52.706852 C35.9355314,52.706852 31.6720866,48.4225664 31.6720866,43.1564142 C31.6720866,37.8896512 35.9361395,33.6053656 41.1768137,33.6053656 C42.9610025,33.6053656 44.7044481,34.1106571 46.2180286,35.0674728 C46.5792449,35.2953733 47.0541771,35.1970034 47.2949877,34.8444602 L55.9951886,22.1370196 C56.2432968,21.7740895 56.1520806,21.2785739 55.7920802,21.0280666 C51.3528926,17.9541588 46.1493125,16.3289164 40.7450573,16.3289164 C26.103642,16.3289164 14.1926316,28.296444 14.1926316,43.0061098 C14.1926316,57.7157758 26.103642,69.6826926 40.7450573,69.6826926 C55.3846479,69.6826926 67.2950504,57.7151651 67.2950504,43.0061098 C67.2944422,42.5655836 66.9393076,42.2087635 66.5002533,42.2087635 L66.5002533,42.2087635 L66.5002533,42.2087635 L66.5002533,42.2087635 Z" id="Shape" fill="#FFFFFF"></path>
                </g>
            </g>
        </g>
    </g>
</svg>