<?xml version="1.0" encoding="UTF-8"?>
<svg width="72px" height="76px" viewBox="0 0 72 76" version="1.1" xmlns="http://www.w3.org/2000/svg" xmlns:xlink="http://www.w3.org/1999/xlink">
    <!-- Generator: Sketch 43.2 (39069) - http://www.bohemiancoding.com/sketch -->
    <title>telekube-logo</title>
    <desc>Created with Sketch.</desc>
    <defs></defs>
    <g id="Website" stroke="none" stroke-width="1" fill="none" fill-rule="evenodd">
        <g id="Homepage-Copy-2" transform="translate(-857.000000, -1691.000000)" fill-rule="nonzero" fill="#375375">
            <g id="telekube-logo" transform="translate(857.000000, 1691.000000)">
                <path d="M39.192586,34.2242461 L47.8985712,34.2242461 L47.8985712,28.2707147 L23.8292055,28.2707147 L23.8292055,34.2242461 L33.2325526,34.2242461 L33.2325526,35.6600506 L23.8292055,41.5623196 L23.8292055,48.5542577 L33.2325526,42.1721473 L33.2325526,47.7938544 L39.192586,47.7938544 L39.192586,42.4777801 L47.8985712,48.3119628 L47.8985712,41.458479 L39.192586,35.9744803 L39.192586,34.2242461 Z M35.773791,16.1702128 C41.6369552,16.1702128 46.9520597,18.5623262 50.8040597,22.4253901 C54.6544478,26.2879149 57.0390448,31.6213901 57.0390448,37.5030355 C57.0390448,43.3846809 54.6544478,48.717078 50.8040597,52.5806809 C46.9531343,56.4432057 41.6369552,58.8353191 35.773791,58.8353191 C29.9100896,58.8353191 24.5939104,56.4432057 20.7429851,52.5806809 C16.8920597,48.717078 14.5074627,43.3846809 14.5074627,37.5030355 C14.5074627,31.6213901 16.8920597,26.2884539 20.7429851,22.4253901 C24.5939104,18.5623262 29.9100896,16.1702128 35.773791,16.1702128 Z" id="Combined-Shape"></path>
                <path d="M71.5727665,49.3865248 C71.4943187,49.0906099 71.3180799,48.8221844 71.0596322,48.636766 L67.4429755,45.4889645 L63.8268561,42.3422411 C63.9558113,41.6377589 64.0390949,40.9074043 64.089065,40.1662695 C64.1401098,39.4262128 64.1583784,38.6753759 64.1583784,37.9353191 C64.1583784,37.1941844 64.1401098,36.4444255 64.089065,35.7032908 C64.0385576,34.962695 63.9558113,34.2312624 63.8268561,33.5273191 L67.4429755,30.3800567 L71.0596322,27.2327943 C71.3180799,27.0473759 71.4948561,26.7794894 71.5727665,26.4830355 C71.650677,26.1865816 71.631871,25.8631773 71.5029158,25.5661844 C70.7641098,23.2894184 69.7587964,21.0676312 68.544468,18.9660426 C67.3312143,16.8649929 65.9110949,14.8836028 64.3421396,13.0881702 C64.1207665,12.8289078 63.8531844,12.6526525 63.5673337,12.5744965 C63.2820202,12.4958014 62.9762889,12.5146667 62.6818411,12.6440284 L58.123274,14.2362553 L53.5657815,15.8279433 C52.4395725,14.9019291 51.2402889,14.0691631 49.9808263,13.3334184 C48.7202889,12.5976738 47.4006472,11.9589504 46.0347964,11.4215603 L45.1310352,6.68260993 L44.2261994,1.94365957 C44.1708561,1.64720567 44.0134233,1.3604539 43.7920501,1.13838298 C43.570677,0.916312057 43.2848263,0.758921986 42.9704979,0.721730496 C40.6079307,0.240397163 38.2088263,0 35.8097218,0 C33.4106173,0 31.0115128,0.240397163 28.6489457,0.721730496 C28.3351546,0.758921986 28.0493039,0.916312057 27.8273934,1.13838298 C27.6060203,1.3604539 27.4491248,1.64720567 27.3937815,1.94365957 L26.489483,6.68314894 L25.5851845,11.4226383 C24.2193337,11.9600284 22.8814233,12.5987518 21.6122889,13.3344965 C20.3436919,14.0702411 19.143871,14.9030071 18.0547367,15.8290213 L13.4961695,14.2373333 L8.93760238,12.6451064 C8.64261731,12.5152057 8.33796059,12.4968794 8.05210984,12.5755745 C7.76572179,12.6542695 7.4981397,12.8299858 7.27676656,13.0892482 C5.70834865,14.8852199 4.2871546,16.8660709 3.07336355,18.9671206 C1.86010982,21.0681702 0.854259077,23.2904965 0.115990419,25.5672624 C-0.0135021187,25.8637163 -0.0317707754,26.1876596 0.0472142992,26.4835745 C0.12566206,26.7794894 0.30082624,27.0479149 0.559274002,27.2333333 L4.17646803,30.3805957 L7.79366208,33.5278582 C7.66470686,34.2312624 7.58142328,34.962695 7.53091581,35.7032908 C7.47987104,36.4438865 7.46160238,37.1941844 7.46160238,37.9342411 C7.46160238,38.6742979 7.47987104,39.4256738 7.5303785,40.1651915 C7.58088596,40.9063262 7.66416955,41.6366809 7.79312477,42.3411631 L4.17646803,45.4878865 L0.559811316,48.636227 C0.301900866,48.8216454 0.126199374,49.0900709 0.0477516126,49.3859858 C-0.0306961486,49.6824397 -0.0124274919,50.005844 0.116527732,50.3017589 C0.85479639,52.5806809 1.86064714,54.8019291 3.07390087,56.9024397 C4.28769191,59.0029504 5.70834865,60.9843404 7.27730387,62.7803121 C7.49921432,63.0390355 7.76679641,63.2158298 8.05264716,63.2939858 C8.33903522,63.3726809 8.64315462,63.3538156 8.93867701,63.2244539 L13.4972442,61.6316879 L18.0558113,60.04 C19.1444084,60.9660142 20.3442292,61.7998582 21.6133636,62.5356028 C22.8819606,63.2708085 24.2204084,63.9095319 25.5857218,64.446383 L26.4900203,69.1869504 L27.3943188,73.9264397 C27.4496621,74.2223546 27.6065576,74.5096454 27.8279307,74.7317163 C28.0493039,74.9532482 28.3356919,75.1117163 28.649483,75.1478298 C29.8304979,75.3699007 31.0115128,75.545617 32.2016621,75.6658156 C33.3918113,75.7865532 34.5916322,75.851234 35.8107964,75.851234 C37.028886,75.851234 38.2276322,75.7865532 39.4188561,75.6658156 C40.6095427,75.545617 41.789483,75.3699007 42.9704979,75.1478298 C43.2848263,75.1117163 43.570677,74.9532482 43.7920501,74.7317163 C44.0139606,74.5096454 44.1703188,74.2223546 44.2261994,73.9264397 L45.1310352,69.1869504 L46.0353337,64.446383 C47.4011845,63.9095319 48.7208263,63.2708085 49.9808263,62.5356028 C51.2402889,61.7998582 52.4401098,60.9660142 53.5657815,60.04 L58.1238113,61.6316879 L62.6818411,63.2244539 C62.9779008,63.3538156 63.2820202,63.3716028 63.5684083,63.2939858 C63.8537217,63.2152908 64.1213038,63.0390355 64.342677,62.7803121 C65.9116322,60.9843404 67.3322889,59.0029504 68.5455426,56.9024397 C69.7593337,54.8019291 70.7651844,52.5790638 71.5039904,50.3017589 C71.6329456,50.006383 71.6522889,49.6824397 71.5727665,49.3865248 L71.5727665,49.3865248 L71.5727665,49.3865248 Z M52.3579009,53.9880284 C48.1179606,58.2413333 42.2644681,60.874922 35.8091845,60.874922 C29.3533636,60.874922 23.499871,58.2407943 19.2599307,53.9880284 C15.0210651,49.7347234 12.3952143,43.8627801 12.3952143,37.3871489 C12.3952143,30.9109787 15.0210651,25.0390355 19.2610054,20.7857305 C23.5009457,16.5324255 29.3544382,13.8982979 35.8107964,13.8982979 C42.26608,13.8982979 48.1190352,16.5324255 52.3595128,20.7857305 C56.5994531,25.0390355 59.2247665,30.9109787 59.2247665,37.3871489 C59.2247665,43.8627801 56.5983784,49.7347234 52.3579009,53.9880284 L52.3579009,53.9880284 L52.3579009,53.9880284 Z" id="Shape"></path>
            </g>
        </g>
    </g>
</svg>